<?xml version="1.0" standalone="no"?>
<!DOCTYPE svg PUBLIC "-//W3C//DTD SVG 20010904//EN"
 "http://www.w3.org/TR/2001/REC-SVG-20010904/DTD/svg10.dtd">
<svg version="1.0" xmlns="http://www.w3.org/2000/svg"
 width="70.000000pt" height="70.000000pt" viewBox="0 0 70.000000 70.000000"
 preserveAspectRatio="xMidYMid meet">
<metadata>
Created by potrace 1.14, written by Peter Selinger 2001-2017
</metadata>
<g transform="translate(0.000000,70.000000) scale(0.100000,-0.100000)"
fill="#000000" stroke="none">
<path d="M324 681 c-3 -3 -9 -6 -12 -6 -4 -1 -17 -6 -29 -13 -13 -7 -23 -10
-23 -7 0 7 -47 -33 -83 -70 -34 -35 -87 -136 -87 -165 0 -11 -4 -20 -8 -20 -5
0 -10 -56 -11 -125 -2 -93 1 -125 10 -125 7 0 10 -3 6 -6 -16 -17 58 -114 87
-114 9 0 16 -6 16 -12 0 -9 4 -8 10 2 7 11 10 11 10 2 0 -12 29 -13 40 -2 3 3
14 10 25 16 27 15 48 60 49 106 1 21 4 38 8 38 4 0 4 7 1 17 -4 9 -2 14 3 10
6 -3 9 8 8 28 -3 39 13 53 65 57 17 1 31 6 31 11 0 4 4 6 9 2 5 -3 16 1 24 9
8 8 17 13 20 10 8 -8 65 45 87 82 11 17 21 43 22 58 1 14 6 26 10 26 8 0 3 38
-9 70 -3 8 -7 22 -9 30 -3 17 -84 94 -84 79 0 -5 -11 -2 -24 6 -23 16 -148 20
-162 6z m97 -75 c18 2 28 0 24 -6 -3 -6 1 -10 9 -10 35 0 66 -88 42 -119 -8
-11 -8 -13 1 -8 8 5 8 1 0 -18 -7 -14 -16 -25 -20 -25 -5 0 -6 -4 -3 -8 3 -4
-12 -16 -32 -26 -20 -10 -45 -22 -54 -27 -13 -6 -18 -5 -19 3 0 7 -2 23 -3 35
-1 12 1 20 6 17 4 -3 8 5 9 18 0 13 2 40 5 60 5 41 -5 52 -48 54 -19 1 -29 -5
-33 -17 -4 -11 -10 -19 -14 -19 -4 0 -8 -17 -10 -37 -1 -21 -3 -48 -4 -60 -1
-13 -6 -23 -10 -23 -5 0 -6 -4 -3 -8 2 -4 1 -14 -5 -22 -5 -8 -9 -10 -9 -4 0
17 -48 4 -52 -14 -7 -26 2 -42 29 -53 23 -8 24 -12 17 -52 -4 -23 -8 -50 -8
-59 0 -10 -4 -18 -9 -18 -4 0 -6 -4 -3 -9 9 -14 -3 -38 -20 -38 -14 0 -57 50
-50 58 2 2 1 25 -3 51 -5 27 -5 48 -2 48 3 0 7 28 8 63 3 80 4 87 16 87 5 0 7
9 4 20 -3 11 -1 20 4 20 5 0 11 11 15 25 3 14 10 25 14 25 5 0 11 9 15 19 3
11 15 23 26 26 10 4 17 10 14 15 -5 9 57 34 87 35 9 0 20 4 24 8 5 5 10 4 12
-1 1 -5 16 -8 33 -6z"/>
</g>
</svg>
